<svg width="20" height="20" viewBox="0 0 20 20" fill="none" xmlns="http://www.w3.org/2000/svg">
<g clip-path="url(#clip0_15_1491)">
<path d="M10.3025 12.4558C10.3025 10.9158 9.57 9.7775 8.05667 9.35083C9.16083 8.825 9.73667 8.02833 9.73667 6.78917C9.73667 4.34583 7.91 3.75 5.8025 3.75H0V16.0175H5.965C8.20167 16.0175 10.3025 14.9483 10.3025 12.4558ZM2.705 5.84417H5.24333C6.21917 5.84417 7.0975 6.1175 7.0975 7.24583C7.0975 8.2875 6.41417 8.70667 5.4475 8.70667H2.705V5.84417ZM2.70417 13.9342V10.5558H5.6525C6.84333 10.5558 7.59667 11.0508 7.59667 12.3075C7.59667 13.5467 6.6975 13.9342 5.59667 13.9342H2.70417Z" fill="#333333"/>
<path d="M15.6635 16.25C17.7918 16.25 19.1702 15.2942 19.8335 13.2625H17.6735C17.441 14.0208 16.4827 14.4217 15.7393 14.4217C14.3052 14.4217 13.5518 13.5842 13.5518 12.1608H19.9793C20.1827 9.31251 18.596 6.88501 15.6627 6.88501C12.9468 6.88501 11.1035 8.92001 11.1035 11.5858C11.1035 14.3525 12.8502 16.25 15.6635 16.25ZM15.5868 8.72834C16.816 8.72834 17.4343 9.44834 17.5377 10.6258H13.5552C13.636 9.45834 14.4135 8.72834 15.5868 8.72834Z" fill="#333333"/>
<path d="M13.0557 4.39417H18.0457V5.6025H13.0557V4.39417Z" fill="#333333"/>
</g>
<defs>
<clipPath id="clip0_15_1491">
<rect width="20" height="20" fill="white"/>
</clipPath>
</defs>
</svg>
