<svg width="20" height="20" viewBox="0 0 20 20" fill="none" xmlns="http://www.w3.org/2000/svg">
<g clip-path="url(#clip0_15_1497)">
<path d="M10 0C4.48625 0 0 4.48625 0 10C0 15.5138 4.48625 20 10 20C15.5138 20 20 15.5138 20 10C20 4.48625 15.5138 0 10 0ZM10 18.75C5.175 18.75 1.25 14.8237 1.25 10C1.25 5.175 5.175 1.25 10 1.25C14.8237 1.25 18.75 5.175 18.75 10C18.75 14.8237 14.8237 18.75 10 18.75Z" fill="#333333"/>
<path d="M9.99978 2.5C9.47478 2.5 8.96229 2.555 8.46729 2.6575C9.37729 3.9475 10.2035 5.29 10.931 6.68125C12.3073 6.04 13.6023 5.2125 14.7848 4.225C13.486 3.1475 11.8185 2.5 9.99978 2.5Z" fill="#333333"/>
<path d="M15.6764 5.10748C14.3902 6.19123 12.9752 7.08998 11.4727 7.79248C11.8014 8.47748 12.1064 9.17123 12.3889 9.87623C14.0489 9.53498 15.7764 9.50373 17.4889 9.78748C17.4389 7.99998 16.7664 6.36998 15.6764 5.10748Z" fill="#333333"/>
<path d="M7.21248 3.04126C4.96123 3.94376 3.25373 5.90376 2.69873 8.31001C5.12623 8.41376 7.52873 8.00876 9.76498 7.15501C9.01373 5.72876 8.16248 4.35376 7.21248 3.04126Z" fill="#333333"/>
<path d="M10.325 8.28625C8.16 9.13 5.8475 9.59 3.49625 9.59C3.1725 9.59 2.8475 9.57 2.5225 9.5525C2.51375 9.70125 2.5 9.84875 2.5 10C2.5 11.8413 3.16625 13.5263 4.2675 14.8313C6.06875 12.595 8.49 10.9925 11.17 10.1875C10.9087 9.545 10.6262 8.9125 10.325 8.28625Z" fill="#333333"/>
<path d="M12.8477 11.06C13.4439 12.7225 13.9114 14.4313 14.2539 16.1738C15.9439 15.0075 17.1239 13.1663 17.4202 11.0388C15.8877 10.7675 14.3389 10.78 12.8477 11.06Z" fill="#333333"/>
<path d="M11.6198 11.35C9.09978 12.0862 6.82354 13.5987 5.15479 15.72C6.46229 16.8287 8.15104 17.5 9.99978 17.5C11.1098 17.5 12.161 17.2525 13.1085 16.8187C12.7648 14.9512 12.2648 13.1237 11.6198 11.35Z" fill="#333333"/>
</g>
<defs>
<clipPath id="clip0_15_1497">
<rect width="20" height="20" fill="white"/>
</clipPath>
</defs>
</svg>
